<?xml version="1.0" encoding="utf-8"?>
<!-- Generator: Adobe Illustrator 25.1.0, SVG Export Plug-In . SVG Version: 6.00 Build 0)  -->
<svg version="1.1" id="Capa_1" xmlns="http://www.w3.org/2000/svg" xmlns:xlink="http://www.w3.org/1999/xlink" x="0px" y="0px"
	 viewBox="0 0 24 24" style="enable-background:new 0 0 24 24;" xml:space="preserve">
<style type="text/css">
	.st0{fill:#fff;}
</style>
<path class="st0" d="M11.8,3.5L11,4.3c-0.2,0.2-0.2,0.5,0,0.7l6.1,6.1H3.7c-0.3,0-0.5,0.2-0.5,0.5v1.1c0,0.3,0.2,0.5,0.5,0.5h13.3
	L11,19.1c-0.2,0.2-0.2,0.5,0,0.7l0.8,0.8c0.2,0.2,0.5,0.2,0.7,0l8.2-8.2c0.2-0.2,0.2-0.5,0-0.7c0,0,0,0,0,0l-8.2-8.2
	C12.2,3.3,12,3.3,11.8,3.5z"/>
</svg>
